<svg width="351" height="350" viewBox="0 0 351 350" fill="none" xmlns="http://www.w3.org/2000/svg">
<path d="M0 76.087C0 34.0653 34.0978 0 76.1594 0H274.174C316.235 0 350.333 34.0653 350.333 76.087V273.913C350.333 315.934 316.235 350 274.174 350H76.1594C34.0978 350 0 315.934 0 273.913V76.087Z" fill="#4ECB71"/>
<path d="M153.955 50.7045C155.403 50.7045 156.435 51.289 157.048 52.4581C157.664 53.6271 157.971 55.351 157.971 57.6296C157.971 59.9083 157.813 61.1862 157.495 61.4636C150.474 61.1664 144.038 60.998 138.188 60.9584C132.357 60.9189 128.618 60.889 126.972 60.8693C127.547 56.1336 127.835 50.9026 127.835 45.1763V25.9167C127.835 24.1929 127.567 23.0834 127.031 22.5881C126.794 22.37 126.446 22.1818 125.99 22.0234C125.693 21.627 125.544 20.993 125.544 20.1212C125.544 19.2295 125.574 18.6054 125.633 18.2487C127.398 18.2289 129.878 18.209 133.071 18.1892C136.264 18.1694 138.733 18.1496 140.478 18.1298C145.377 18.0703 151.05 17.9118 157.495 17.6543C157.813 17.9317 157.971 19.2097 157.971 21.4883C157.971 23.767 157.664 25.4908 157.048 26.6598C156.435 27.829 155.284 28.4134 153.598 28.4134C151.912 28.4134 150.732 27.8883 150.058 26.8381V23.2418C144.267 22.9644 139.655 22.8258 136.224 22.8258C136.72 25.0054 136.968 27.6803 136.968 30.8505C136.968 31.0884 136.968 31.3162 136.968 31.5342V37.0624L149.76 36.4085C150.078 36.785 150.236 37.5478 150.236 38.6971C150.236 39.8265 150.137 40.9856 149.939 42.1744C148.848 42.333 147.291 42.4122 145.268 42.4122C143.265 42.4122 140.498 42.2141 136.968 41.8178V47.6135C136.968 47.8315 136.968 48.0593 136.968 48.2971C136.968 51.4871 136.72 54.1521 136.224 56.2922C139.655 56.2922 144.267 56.1534 150.058 55.8761V52.2798C150.395 51.6259 151.169 51.1603 152.378 50.8828C152.855 50.764 153.381 50.7045 153.955 50.7045Z" fill="black"/>
<path d="M162.553 33.2283C162.415 32.2772 162.344 31.7621 162.344 31.6828C162.344 31.5045 162.355 31.336 162.375 31.1776C164.893 30.2265 167.461 29.751 170.079 29.751C170.992 29.751 172.201 29.8402 173.709 30.0185C174.164 30.2166 174.591 30.5237 174.988 30.9398C175.384 31.356 175.861 32.0395 176.416 32.9906C176.991 33.9219 178.399 36.4185 180.641 40.4805C183.02 36.042 184.726 32.5944 185.757 30.1374C187.285 29.7411 188.752 29.543 190.161 29.543C191.568 29.543 192.868 29.7212 194.057 30.0779C191.142 34.7937 187.483 39.6581 183.08 44.6712C186.571 50.6154 190.289 54.9151 194.237 57.5702C194.237 58.7789 193.771 59.7895 192.839 60.6018C191.926 61.4143 190.814 61.8204 189.506 61.8204C189.328 61.8204 188.95 61.8006 188.376 61.7609C187.82 61.7411 187.066 61.4637 186.115 60.9288C185.183 60.4136 184.33 59.7895 183.556 59.0563C182.783 58.3034 181.949 57.3027 181.057 56.0544C179.709 54.1722 178.192 51.7547 176.506 48.8024C176.068 49.5554 175.177 51.3288 173.828 54.1226C172.5 56.8965 171.378 59.1455 170.466 60.8693C168.938 61.2656 167.472 61.4637 166.063 61.4637C164.675 61.4637 163.386 61.2854 162.195 60.9288C163.347 58.8285 165.299 55.9753 168.056 52.3691C170.833 48.7628 172.876 46.2167 174.184 44.7305C171.269 39.6581 168.83 36.2698 166.867 34.5658C165.756 33.6742 164.319 33.2283 162.553 33.2283Z" fill="black"/>
<path d="M202.506 80.1585C202.904 76.2153 203.102 69.3894 203.102 59.6804C203.102 49.9515 202.825 42.4122 202.269 37.0624C202.15 35.0214 201.029 33.9119 198.907 33.7336C198.887 33.6146 198.857 33.4759 198.817 33.3174C198.797 33.139 198.778 33.0004 198.758 32.9013C198.718 32.6239 198.698 32.3862 198.698 32.1879C198.698 31.9898 198.709 31.8115 198.729 31.653C201.367 30.6425 203.518 30.0283 205.184 29.8102C206.851 29.5725 208.06 29.4537 208.814 29.4537C209.588 29.4537 210.063 29.4537 210.241 29.4537C210.698 30.1471 211.006 31.4251 211.164 33.2877C212.532 32.0394 214.128 31.0486 215.953 30.3156C217.798 29.5824 219.514 29.2158 221.1 29.2158C222.707 29.2158 224.095 29.3447 225.266 29.6022C226.436 29.84 227.586 30.2958 228.716 30.9695C229.866 31.6232 230.858 32.4752 231.691 33.5254C233.735 36.1014 234.755 39.7768 234.755 44.5521C234.755 46.8307 234.399 48.951 233.685 50.9125C232.97 52.8741 232.029 54.5286 230.858 55.8761C229.708 57.2234 228.388 58.3726 226.902 59.3237C224.026 61.1664 221.159 62.0878 218.303 62.0878C215.447 62.0878 213.147 61.8005 211.402 61.2259C211.402 64.9708 211.362 71.3411 211.283 80.3368C209.478 80.6538 207.851 80.8124 206.404 80.8124C204.975 80.8124 203.676 80.5943 202.506 80.1585ZM211.283 36.4678C211.362 41.4215 211.402 48.3961 211.402 57.3917C212.631 57.8475 214.029 58.0755 215.597 58.0755C217.184 58.0755 218.512 57.8277 219.583 57.3324C220.654 56.8171 221.656 56.0642 222.588 55.0735C224.631 52.8741 225.653 49.5552 225.653 45.1168C225.653 40.5397 224.71 37.4487 222.826 35.8438C221.418 34.635 219.673 34.0308 217.591 34.0308C215.527 34.0308 213.425 34.8431 211.283 36.4678Z" fill="black"/>
<path d="M263.583 131.013C269.454 170.087 273.818 196.003 276.673 208.765C279.529 221.445 282.346 233.533 285.123 245.025C287.898 256.517 290.12 266.067 291.785 273.676C286.154 275.499 279.37 276.411 271.437 276.411C263.583 276.411 258.03 275.499 254.778 273.676C248.589 261.945 241.211 225.091 232.643 163.113C231.215 152.809 230.382 146.904 230.145 145.398C215.467 180.112 205.551 211.142 200.394 238.486C198.49 248.471 197.539 255.487 197.539 259.528C197.539 263.57 197.539 265.949 197.539 266.661C192.619 270.149 186.155 271.893 178.141 271.893C169.336 271.893 163.941 270.149 161.958 266.661C160.768 263.254 157.912 254.496 153.39 240.388C141.252 202.344 130.463 170.245 121.022 144.09L120.546 150.985C119.356 176.428 117.809 194.378 115.905 204.84C114.001 215.302 112.256 223.901 110.669 230.638C109.083 237.297 107.179 243.241 104.957 248.471C102.815 253.624 100.356 258.379 97.5793 262.738C91.2326 272.883 83.339 277.955 73.8984 277.955C66.0445 277.955 59.7772 275.102 55.0966 269.395C52.8752 266.7 51.7646 263.807 51.7646 260.717C58.508 256.199 64.6959 250.018 70.3285 242.171C75.9611 234.324 80.5624 226.082 84.1324 217.443C87.7023 208.804 90.7964 199.57 93.4143 189.743C98.8883 169.294 101.625 151.58 101.625 136.6C101.625 131.686 101.268 128.516 100.554 127.089C99.8403 125.583 99.3245 124.474 99.0073 123.76C98.69 122.968 98.0553 122.255 97.1033 121.621C96.1513 120.987 95.5166 120.59 95.1993 120.432C94.9614 120.273 94.2473 119.996 93.0574 119.6C91.8673 119.124 91.193 118.847 91.0343 118.767C89.765 117.182 89.1303 114.567 89.1303 110.921C89.1303 107.196 89.289 104.699 89.6063 103.431C93.573 102.638 98.8883 102.242 105.552 102.242C112.296 102.242 121.101 102.638 131.97 103.431C135.778 104.224 147.956 130.973 168.503 183.679C176.277 203.652 181.156 215.541 183.139 219.345C187.424 204.761 201.148 166.203 224.314 103.669C232.247 103.114 237.442 102.837 239.902 102.837C242.441 102.837 245.218 103.352 248.232 104.382C251.326 105.333 254.38 108.226 257.394 113.061C260.41 117.896 262.473 123.879 263.583 131.013Z" fill="black"/>
</svg>
