<svg width="122" height="122" viewBox="0 0 122 122" fill="none" xmlns="http://www.w3.org/2000/svg">
<path d="M0 26.4965C0 11.8629 11.8742 0 26.5217 0H95.4783C110.126 0 122 11.8629 122 26.4965V95.3874C122 110.021 110.126 121.884 95.4783 121.884H26.5217C11.8742 121.884 0 110.021 0 95.3874V26.4965Z" fill="#4ECB71"/>
<path d="M53.6132 17.6569C54.1176 17.6569 54.4767 17.8604 54.6905 18.2675C54.9048 18.6746 55.0119 19.2749 55.0119 20.0685C55.0119 20.862 54.9568 21.307 54.8459 21.4036C52.4012 21.3001 50.1599 21.2415 48.1225 21.2277C46.0919 21.2139 44.79 21.2035 44.2167 21.1966C44.417 19.5475 44.5172 17.7259 44.5172 15.7317V9.02477C44.5172 8.42446 44.4239 8.03809 44.2374 7.8656C44.1546 7.78966 44.0337 7.72411 43.8748 7.66894C43.7712 7.5309 43.7195 7.31013 43.7195 7.00653C43.7195 6.69599 43.7298 6.47867 43.7505 6.35445C44.3652 6.34756 45.2285 6.34062 46.3405 6.33373C47.4525 6.32684 48.3124 6.31995 48.9202 6.31306C50.6261 6.29234 52.6015 6.23713 54.8459 6.14746C54.9568 6.24407 55.0119 6.6891 55.0119 7.48262C55.0119 8.27614 54.9048 8.87644 54.6905 9.28353C54.4767 9.69068 54.0762 9.89423 53.489 9.89423C52.9019 9.89423 52.4909 9.71135 52.2561 9.34564V8.09326C50.2393 7.99665 48.6336 7.94838 47.4387 7.94838C47.6114 8.70739 47.6977 9.63891 47.6977 10.7429C47.6977 10.8257 47.6977 10.9051 47.6977 10.981V12.9061L52.1525 12.6784C52.263 12.8095 52.3183 13.0752 52.3183 13.4754C52.3183 13.8687 52.2837 14.2723 52.2147 14.6863C51.8348 14.7415 51.2926 14.7692 50.5882 14.7692C49.8906 14.7692 48.9271 14.7002 47.6977 14.5622V16.5805C47.6977 16.6563 47.6977 16.7357 47.6977 16.8185C47.6977 17.9294 47.6114 18.8575 47.4387 19.6027C48.6336 19.6027 50.2393 19.5544 52.2561 19.4578V18.2054C52.3735 17.9777 52.6429 17.8156 53.0642 17.719C53.2302 17.6776 53.4132 17.6569 53.6132 17.6569Z" fill="black"/>
<path d="M56.6075 11.5715C56.5592 11.2403 56.5348 11.0609 56.5348 11.0333C56.5348 10.9712 56.5385 10.9125 56.5454 10.8573C57.4222 10.5261 58.3165 10.3605 59.2283 10.3605C59.5461 10.3605 59.9672 10.3916 60.4924 10.4537C60.651 10.5227 60.7995 10.6296 60.9379 10.7745C61.0759 10.9194 61.2419 11.1575 61.435 11.4887C61.6355 11.813 62.1256 12.6824 62.9064 14.097C63.7349 12.5513 64.329 11.3507 64.6881 10.4951C65.2201 10.3571 65.7309 10.2881 66.2216 10.2881C66.7117 10.2881 67.1642 10.3501 67.5785 10.4744C66.5632 12.1166 65.2891 13.8106 63.7556 15.5563C64.9714 17.6263 66.2662 19.1237 67.641 20.0483C67.641 20.4692 67.4787 20.8211 67.1541 21.104C66.8364 21.3869 66.4492 21.5284 65.9935 21.5284C65.9314 21.5284 65.7999 21.5215 65.5999 21.5077C65.4063 21.5008 65.1438 21.4042 64.8128 21.2179C64.4881 21.0385 64.1911 20.8211 63.9216 20.5658C63.6522 20.3036 63.362 19.9551 63.0512 19.5204C62.5818 18.865 62.0534 18.0231 61.4663 16.995C61.314 17.2572 61.0037 17.8748 60.5337 18.8477C60.0712 19.8137 59.6808 20.5969 59.3631 21.1972C58.831 21.3352 58.3202 21.4042 57.8296 21.4042C57.3464 21.4042 56.8976 21.3421 56.4828 21.2179C56.8838 20.4865 57.5638 19.4929 58.5239 18.237C59.4909 16.9812 60.2022 16.0945 60.6579 15.577C59.6426 13.8106 58.7934 12.6306 58.1097 12.0372C57.723 11.7267 57.2222 11.5715 56.6075 11.5715Z" fill="black"/>
<path d="M70.5208 27.9141C70.6592 26.5409 70.7282 24.1639 70.7282 20.7828C70.7282 17.3948 70.6316 14.7693 70.438 12.9063C70.3967 12.1956 70.0063 11.8092 69.2674 11.7471C69.2605 11.7056 69.2499 11.6574 69.2361 11.6021C69.2292 11.54 69.2223 11.4918 69.2154 11.4573C69.2016 11.3607 69.1947 11.2779 69.1947 11.2088C69.1947 11.1398 69.1984 11.0777 69.2053 11.0226C70.124 10.6706 70.873 10.4568 71.4533 10.3808C72.0336 10.298 72.4548 10.2567 72.7173 10.2567C72.9868 10.2567 73.1523 10.2567 73.2143 10.2567C73.3735 10.4981 73.4806 10.9432 73.5358 11.5918C74.0121 11.1571 74.568 10.8121 75.2035 10.5568C75.8458 10.3015 76.4436 10.1738 76.9958 10.1738C77.5554 10.1738 78.0386 10.2187 78.4465 10.3084C78.8539 10.3912 79.2544 10.5499 79.648 10.7845C80.0485 11.0122 80.3938 11.3089 80.6839 11.6746C81.3958 12.5717 81.7512 13.8516 81.7512 15.5145C81.7512 16.308 81.627 17.0464 81.3783 17.7295C81.1295 18.4126 80.8017 18.9887 80.3938 19.458C79.9933 19.9272 79.5339 20.3274 79.0162 20.6586C78.0148 21.3003 77.0165 21.6212 76.0219 21.6212C75.0274 21.6212 74.2264 21.5211 73.6185 21.321C73.6185 22.6251 73.6047 24.8435 73.5772 27.9762C72.9486 28.0866 72.3821 28.1418 71.8782 28.1418C71.3806 28.1418 70.9282 28.0659 70.5208 27.9141ZM73.5772 12.6993C73.6047 14.4243 73.6185 16.8532 73.6185 19.9858C74.0466 20.1445 74.5335 20.2239 75.0793 20.2239C75.6321 20.2239 76.0946 20.1376 76.4675 19.9651C76.8404 19.7857 77.1894 19.5235 77.514 19.1785C78.2254 18.4126 78.5813 17.2568 78.5813 15.7112C78.5813 14.1172 78.2529 13.0409 77.5968 12.4819C77.1067 12.061 76.4988 11.8506 75.7737 11.8506C75.0549 11.8506 74.3229 12.1335 73.5772 12.6993Z" fill="black"/>
<path d="M91.7902 45.6235C93.8345 59.2306 95.3542 68.2559 96.3487 72.6999C97.3433 77.1158 98.3241 81.325 99.291 85.327C100.257 89.3291 101.031 92.6549 101.611 95.3046C99.6501 95.9394 97.2876 96.2568 94.5251 96.2568C91.7902 96.2568 89.8562 95.9394 88.7237 95.3046C86.5686 91.2193 83.9991 78.3855 81.0154 56.802C80.5184 53.2138 80.2283 51.1574 80.1455 50.633C75.0343 62.7218 71.5811 73.5276 69.7851 83.0499C69.122 86.5273 68.791 88.9703 68.791 90.3778C68.791 91.7853 68.791 92.6136 68.791 92.8616C67.0777 94.0762 64.8266 94.6835 62.0359 94.6835C58.9695 94.6835 57.0907 94.0762 56.4001 92.8616C55.9858 91.6751 54.9912 88.6253 53.4164 83.7123C49.1896 70.4641 45.4323 59.2857 42.1447 50.1776L41.9789 52.5788C41.5646 61.4388 41.0259 67.6899 40.3628 71.3332C39.6998 74.9764 39.0919 77.9711 38.5394 80.3171C37.9869 82.6361 37.3238 84.706 36.5503 86.5273C35.8044 88.3217 34.9479 89.9777 33.981 91.4954C31.7708 95.0285 29.022 96.7947 25.7344 96.7947C22.9993 96.7947 20.8168 95.8011 19.1868 93.8139C18.4133 92.8754 18.0265 91.868 18.0265 90.7917C20.3748 89.2183 22.5297 87.0657 24.4912 84.3334C26.4527 81.6006 28.055 78.7305 29.2983 75.7221C30.5414 72.7136 31.6189 69.498 32.5306 66.0757C34.4368 58.9545 35.39 52.7858 35.39 47.5693C35.39 45.8581 35.2656 44.7541 35.017 44.2572C34.7684 43.7328 34.5888 43.3465 34.4783 43.098C34.3678 42.822 34.1468 42.5736 33.8152 42.3528C33.4837 42.132 33.2627 41.994 33.1522 41.9388C33.0693 41.8836 32.8207 41.787 32.4063 41.649C31.9919 41.4834 31.757 41.3868 31.7018 41.3592C31.2598 40.8072 31.0387 39.8964 31.0387 38.6267C31.0387 37.3295 31.094 36.4601 31.2045 36.0185C32.5858 35.7425 34.4368 35.6045 36.7575 35.6045C39.1058 35.6045 42.1723 35.7425 45.9572 36.0185C47.2833 36.2945 51.524 45.6097 58.6794 63.964C61.3867 70.9193 63.0857 75.0596 63.7763 76.3845C65.2684 71.3056 70.0476 57.8782 78.115 36.1013C80.8775 35.9081 82.6868 35.8115 83.5435 35.8115C84.4277 35.8115 85.3947 35.9909 86.4444 36.3497C87.5217 36.6809 88.5853 37.6883 89.635 39.372C90.6853 41.0556 91.4035 43.1394 91.7902 45.6235Z" fill="black"/>
</svg>
