<svg width="325" height="40" viewBox="0 0 325 40" fill="none" xmlns="http://www.w3.org/2000/svg">
<mask id="path-1-outside-1_222_10" maskUnits="userSpaceOnUse" x="0" y="3.7793" width="306" height="36" fill="black">
<rect fill="white" y="3.7793" width="306" height="36"/>
<path d="M2 5.7793H25.1577C27.0708 5.7793 28.6829 5.86626 29.9939 6.04017C31.3184 6.20071 32.4087 6.44821 33.2649 6.78266C34.1211 7.11712 34.7767 7.53184 35.2315 8.02684C35.6998 8.52183 36.0409 9.10379 36.2549 9.7727C36.469 10.4416 36.5894 11.1908 36.6162 12.0202C36.6563 12.8497 36.6764 13.7661 36.6764 14.7695C36.6764 15.813 36.6496 16.7762 36.5961 17.6592C36.556 18.5421 36.4021 19.3448 36.1345 20.0672C35.8804 20.7763 35.4656 21.4051 34.8904 21.9536C34.3285 22.4887 33.5191 22.9369 32.4622 23.2981C31.4187 23.6593 30.0876 23.9336 28.4688 24.1208C26.8634 24.3081 24.8835 24.4018 22.5289 24.4018H5.85293C9.46655 32.8668 11.5767 34.5966 9.3674 35.9111C8.38235 36.4972 7.19348 36.6027 6.04726 36.6027H2V5.7793ZM5.85293 21.191H22.5289C24.2413 21.191 25.6795 21.1643 26.8434 21.1107C28.0207 21.0439 28.9906 20.9301 29.7531 20.7696C30.5157 20.6091 31.1043 20.3816 31.5191 20.0873C31.9338 19.793 32.2348 19.405 32.4221 18.9234C32.6228 18.4418 32.7365 17.8665 32.7632 17.1976C32.8034 16.5153 32.8234 15.7059 32.8234 14.7695C32.8234 13.8999 32.8034 13.1507 32.7632 12.5219C32.7365 11.8931 32.6228 11.3647 32.4221 10.9366C32.2348 10.5085 31.9338 10.1674 31.5191 9.91317C31.1043 9.65898 30.5157 9.465 29.7531 9.33122C28.9906 9.18406 28.0207 9.09041 26.8434 9.05027C25.6795 9.01014 24.2413 8.99007 22.5289 8.99007H5.85293V21.191Z"/>
<path d="M60.4361 21.0104C60.4361 20.0472 60.3625 19.2512 60.2154 18.6224C60.0816 17.9802 59.7538 17.4719 59.2321 17.0973C58.7103 16.7093 57.9344 16.4417 56.9042 16.2946C55.8875 16.134 54.4962 16.0538 52.7302 16.0538C51.0044 16.0538 49.5997 16.2076 48.5161 16.5153C47.4325 16.8096 46.5829 17.2311 45.9675 17.7796C45.3521 18.3281 44.9307 18.9836 44.7033 19.7462C44.4892 20.5087 44.3822 21.3582 44.3822 22.2947V36.6027H40.5293V13.4852H44.3822V17.1575C44.516 16.7428 44.7635 16.2879 45.1247 15.7929C45.4859 15.2845 46.0344 14.8163 46.7702 14.3882C47.506 13.9467 48.4559 13.5788 49.6198 13.2845C50.7971 12.9902 52.262 12.843 54.0145 12.843C56.0213 12.843 57.6534 13.0236 58.911 13.3848C60.1685 13.7327 61.1451 14.2544 61.8408 14.9501C62.5499 15.6324 63.0248 16.4819 63.2656 17.4986C63.5198 18.5154 63.6469 19.686 63.6469 21.0104H60.4361Z"/>
<path d="M67.4998 24.8834C67.4998 22.5155 67.754 20.5555 68.2624 19.0037C68.7707 17.4518 69.5868 16.221 70.7106 15.3113C71.8343 14.4016 73.2926 13.7661 75.0853 13.4049C76.8779 13.0303 79.0586 12.843 81.6272 12.843C84.1958 12.843 86.3765 13.0303 88.1692 13.4049C89.9618 13.7661 91.4201 14.4016 92.5438 15.3113C93.6676 16.221 94.4837 17.4518 94.9921 19.0037C95.5004 20.5555 95.7546 22.5155 95.7546 24.8834C95.7546 27.2514 95.5004 29.218 94.9921 30.7832C94.4837 32.3485 93.6676 33.5926 92.5438 34.5157C91.4201 35.4388 89.9618 36.0944 88.1692 36.4823C86.3765 36.8569 84.1958 37.0442 81.6272 37.0442C79.0586 37.0442 76.8779 36.8569 75.0853 36.4823C73.2926 36.0944 71.8343 35.4388 70.7106 34.5157C69.5868 33.5926 68.7707 32.3485 68.2624 30.7832C67.754 29.218 67.4998 27.2514 67.4998 24.8834ZM71.3527 24.8834C71.3527 26.1677 71.3996 27.2848 71.4932 28.2347C71.5868 29.1845 71.7608 30.0006 72.0149 30.6829C72.2825 31.3652 72.6504 31.9204 73.1187 32.3485C73.5869 32.7766 74.2023 33.1177 74.9648 33.3719C75.7274 33.6261 76.6505 33.8 77.7341 33.8936C78.8312 33.9873 80.1288 34.0341 81.6272 34.0341C82.9115 34.0341 84.0554 34.0074 85.0587 33.9538C86.0755 33.887 86.9584 33.7465 87.7076 33.5324C88.4702 33.3184 89.119 33.0174 89.6541 32.6294C90.1893 32.2281 90.6174 31.6862 90.9384 31.0039C91.2729 30.3217 91.5137 29.4855 91.6609 28.4955C91.8214 27.4922 91.9017 26.2881 91.9017 24.8834C91.9017 23.5054 91.8214 22.3349 91.6609 21.3716C91.5137 20.395 91.2729 19.5789 90.9384 18.9234C90.6174 18.2679 90.1893 17.7528 89.6541 17.3782C89.119 16.9903 88.4702 16.7026 87.7076 16.5153C86.9584 16.3147 86.0755 16.1876 85.0587 16.134C84.0554 16.0805 82.9115 16.0538 81.6272 16.0538C80.3429 16.0538 79.1924 16.0805 78.1756 16.134C77.1723 16.1876 76.2893 16.3147 75.5267 16.5153C74.7776 16.7026 74.1354 16.9903 73.6003 17.3782C73.0651 17.7528 72.6303 18.2679 72.2959 18.9234C71.9748 19.5789 71.734 20.395 71.5735 21.3716C71.4263 22.3349 71.3527 23.5054 71.3527 24.8834Z"/>
<path d="M170.887 13.4852L161.897 36.6027H156.759L149.696 17.6592L142.632 36.6027H137.495L128.505 13.4852H133L140.063 33.713L147.769 13.4852H151.622L159.248 33.713L166.392 13.4852H170.887Z"/>
<path d="M186.941 37.0442C184.372 37.0442 182.191 36.8703 180.399 36.5225C178.606 36.1613 177.148 35.5459 176.024 34.6763C174.9 33.8067 174.084 32.6428 173.576 31.1846C173.067 29.7263 172.813 27.8935 172.813 25.6861C172.813 23.1576 173.067 21.0706 173.576 19.4251C174.084 17.7662 174.9 16.4484 176.024 15.4718C177.148 14.4952 178.606 13.8129 180.399 13.425C182.191 13.037 184.372 12.843 186.941 12.843C188.773 12.843 190.359 12.9768 191.697 13.2443C193.048 13.5119 194.198 13.8999 195.148 14.4083C196.111 14.9166 196.887 15.532 197.476 16.2544C198.078 16.9769 198.546 17.7394 198.881 18.5421C199.229 19.3314 199.463 20.2612 199.583 21.3315C199.717 22.4017 199.784 23.5322 199.784 24.7229L199.463 26.0072H176.666C176.666 27.7731 176.84 29.2246 177.188 30.3618C177.536 31.4856 178.111 32.3083 178.914 32.8301C179.716 33.3518 180.773 33.6863 182.084 33.8334C183.395 33.9672 185.014 34.0341 186.941 34.0341C188.707 34.0341 190.165 33.9873 191.315 33.8936C192.479 33.7866 193.402 33.5926 194.085 33.3117C194.767 33.0307 195.242 32.6428 195.509 32.1478C195.79 31.6394 195.931 30.9839 195.931 30.1812H199.784C199.784 31.4254 199.563 32.4889 199.121 33.3719C198.693 34.2415 197.978 34.9505 196.974 35.499C195.971 36.0342 194.646 36.4221 193.001 36.6629C191.369 36.9171 189.349 37.0442 186.941 37.0442ZM186.941 16.0538C185.656 16.0538 184.506 16.0805 183.489 16.134C182.486 16.1876 181.603 16.308 180.84 16.4953C180.091 16.6692 179.449 16.93 178.914 17.2779C178.379 17.6123 177.944 18.0137 177.609 18.4819C177.288 18.9368 177.047 19.5856 176.887 20.4285C176.74 21.2579 176.666 22.2613 176.666 23.4386H195.931C195.931 21.8733 195.764 20.6492 195.429 19.7662C195.095 18.8699 194.566 18.1341 193.844 17.5588C193.121 16.9836 192.192 16.5889 191.054 16.3749C189.917 16.1608 188.546 16.0538 186.941 16.0538Z"/>
<path d="M227.938 33.4321C227.898 33.5926 227.597 33.994 227.035 34.6361C226.634 35.1178 226.099 35.5459 225.43 35.9204C224.761 36.2817 223.865 36.5626 222.741 36.7633C221.63 36.9773 220.165 37.0843 218.346 37.0843C215.925 37.0843 213.858 36.9573 212.145 36.7031C210.433 36.4623 209.035 36.0877 207.951 35.5793C206.867 35.0575 206.071 34.3953 205.563 33.5926C205.068 32.7899 204.821 31.8334 204.821 30.723C204.821 29.5591 204.954 28.5758 205.222 27.7731C205.503 26.957 205.904 26.2747 206.426 25.7262C206.961 25.1777 207.603 24.7496 208.352 24.4419C209.102 24.1342 209.951 23.9001 210.901 23.7396C211.864 23.579 212.914 23.4787 214.052 23.4386C215.189 23.3984 216.399 23.3784 217.684 23.3784C219.517 23.3784 221.048 23.4586 222.279 23.6192C223.51 23.7663 224.513 23.9603 225.289 24.2011C226.079 24.4285 226.674 24.676 227.075 24.9436C227.477 25.2112 227.764 25.4587 227.938 25.6861C227.938 24.1877 227.871 22.9101 227.738 21.8532C227.617 20.7964 227.41 19.9134 227.115 19.2043C226.834 18.4953 226.467 17.9334 226.012 17.5187C225.557 17.0906 224.995 16.7695 224.326 16.5555C223.671 16.3414 222.901 16.2076 222.018 16.1541C221.135 16.0872 220.125 16.0538 218.988 16.0538C217.222 16.0538 215.757 16.1006 214.593 16.1942C213.429 16.2745 212.506 16.4417 211.824 16.6959C211.142 16.9501 210.66 17.3046 210.379 17.7595C210.098 18.201 209.958 18.7829 209.958 19.5054H206.105C206.105 18.2879 206.319 17.2578 206.747 16.415C207.189 15.5722 207.911 14.8899 208.914 14.3681C209.931 13.833 211.262 13.445 212.908 13.2042C214.553 12.9634 216.58 12.843 218.988 12.843C221.343 12.843 223.336 13.037 224.968 13.425C226.6 13.8129 227.918 14.4952 228.921 15.4718C229.938 16.4484 230.667 17.7662 231.109 19.4251C231.564 21.0706 231.791 23.1576 231.791 25.6861V36.6027H227.938V33.4321ZM218.988 34.0341C220.687 34.0341 222.105 33.9538 223.242 33.7933C224.393 33.6328 225.316 33.392 226.012 33.0709C226.707 32.7498 227.202 32.3485 227.497 31.8668C227.791 31.3852 227.938 30.8233 227.938 30.1812C227.938 29.539 227.764 28.9972 227.416 28.5557C227.082 28.1009 226.513 27.733 225.711 27.452C224.921 27.1711 223.871 26.9704 222.56 26.85C221.249 26.7162 219.63 26.6493 217.704 26.6493C215.777 26.6493 214.219 26.6828 213.028 26.7497C211.851 26.8166 210.941 26.9704 210.299 27.2112C209.657 27.452 209.222 27.8065 208.995 28.2748C208.781 28.743 208.674 29.3785 208.674 30.1812C208.674 30.9839 208.787 31.6394 209.015 32.1478C209.255 32.6428 209.737 33.0307 210.46 33.3117C211.182 33.5926 212.219 33.7866 213.57 33.8936C214.935 33.9873 216.741 34.0341 218.988 34.0341Z"/>
<path d="M238.233 5.7793H242.086V36.6027H238.233V5.7793Z"/>
<path d="M270.983 26.3283C270.983 28.2949 270.822 29.9404 270.501 31.2648C270.18 32.5759 269.638 33.6261 268.876 34.4154C268.126 35.2047 267.136 35.7666 265.906 36.1011C264.675 36.4355 263.156 36.6027 261.35 36.6027C259.598 36.6027 258.126 36.469 256.935 36.2014C255.745 35.9338 254.782 35.479 254.046 34.8368C253.31 34.1947 252.782 33.3384 252.46 32.2682C252.139 31.1979 251.979 29.8601 251.979 28.2547V16.6558H247.223V13.4852H251.979V7.16394H255.832V13.4852H270.34V16.6558H255.832V28.2547C255.832 29.539 255.925 30.529 256.113 31.2247C256.313 31.9204 256.628 32.4287 257.056 32.7498C257.484 33.0709 258.046 33.2582 258.742 33.3117C259.451 33.3652 260.313 33.392 261.33 33.392C262.133 33.392 262.849 33.3786 263.477 33.3518C264.12 33.3251 264.675 33.2448 265.143 33.111C265.625 32.9639 266.033 32.7498 266.367 32.4689C266.702 32.1745 266.969 31.7665 267.17 31.2448C267.384 30.723 267.538 30.0675 267.631 29.2782C267.725 28.4755 267.772 27.4922 267.772 26.3283H270.983Z"/>
<path d="M299.237 36.6027V23.559C299.237 22.1676 299.13 20.997 298.916 20.0472C298.702 19.0839 298.274 18.308 297.632 17.7194C296.99 17.1307 296.08 16.7093 294.903 16.4551C293.726 16.1876 292.174 16.0538 290.247 16.0538C288.16 16.0538 286.448 16.2076 285.11 16.5153C283.786 16.8096 282.742 17.2311 281.98 17.7796C281.217 18.3147 280.689 18.9635 280.394 19.7261C280.113 20.4887 279.973 21.3382 279.973 22.2747V36.6027H276.12V5.7793H279.973V17.1374C280.24 16.5086 280.622 15.9668 281.117 15.512C281.612 15.0571 282.18 14.6691 282.822 14.3481C283.478 14.027 284.18 13.7728 284.929 13.5855C285.679 13.3848 286.434 13.231 287.197 13.1239C287.973 13.0169 288.729 12.9433 289.465 12.9032C290.214 12.8631 290.903 12.843 291.532 12.843C293.244 12.843 294.716 12.95 295.946 13.1641C297.191 13.3648 298.241 13.6725 299.097 14.0872C299.967 14.4885 300.662 14.9902 301.184 15.5922C301.706 16.1942 302.107 16.8966 302.388 17.6993C302.682 18.4886 302.876 19.3783 302.97 20.3683C303.064 21.3449 303.11 22.4084 303.11 23.559L303.09 36.6027H299.237Z"/>
</mask>
<path d="M2 5.7793H25.1577C27.0708 5.7793 28.6829 5.86626 29.9939 6.04017C31.3184 6.20071 32.4087 6.44821 33.2649 6.78266C34.1211 7.11712 34.7767 7.53184 35.2315 8.02684C35.6998 8.52183 36.0409 9.10379 36.2549 9.7727C36.469 10.4416 36.5894 11.1908 36.6162 12.0202C36.6563 12.8497 36.6764 13.7661 36.6764 14.7695C36.6764 15.813 36.6496 16.7762 36.5961 17.6592C36.556 18.5421 36.4021 19.3448 36.1345 20.0672C35.8804 20.7763 35.4656 21.4051 34.8904 21.9536C34.3285 22.4887 33.5191 22.9369 32.4622 23.2981C31.4187 23.6593 30.0876 23.9336 28.4688 24.1208C26.8634 24.3081 24.8835 24.4018 22.5289 24.4018H5.85293C9.46655 32.8668 11.5767 34.5966 9.3674 35.9111C8.38235 36.4972 7.19348 36.6027 6.04726 36.6027H2V5.7793ZM5.85293 21.191H22.5289C24.2413 21.191 25.6795 21.1643 26.8434 21.1107C28.0207 21.0439 28.9906 20.9301 29.7531 20.7696C30.5157 20.6091 31.1043 20.3816 31.5191 20.0873C31.9338 19.793 32.2348 19.405 32.4221 18.9234C32.6228 18.4418 32.7365 17.8665 32.7632 17.1976C32.8034 16.5153 32.8234 15.7059 32.8234 14.7695C32.8234 13.8999 32.8034 13.1507 32.7632 12.5219C32.7365 11.8931 32.6228 11.3647 32.4221 10.9366C32.2348 10.5085 31.9338 10.1674 31.5191 9.91317C31.1043 9.65898 30.5157 9.465 29.7531 9.33122C28.9906 9.18406 28.0207 9.09041 26.8434 9.05027C25.6795 9.01014 24.2413 8.99007 22.5289 8.99007H5.85293V21.191Z" fill="#EAEFE1"/>
<path d="M60.4361 21.0104C60.4361 20.0472 60.3625 19.2512 60.2154 18.6224C60.0816 17.9802 59.7538 17.4719 59.2321 17.0973C58.7103 16.7093 57.9344 16.4417 56.9042 16.2946C55.8875 16.134 54.4962 16.0538 52.7302 16.0538C51.0044 16.0538 49.5997 16.2076 48.5161 16.5153C47.4325 16.8096 46.5829 17.2311 45.9675 17.7796C45.3521 18.3281 44.9307 18.9836 44.7033 19.7462C44.4892 20.5087 44.3822 21.3582 44.3822 22.2947V36.6027H40.5293V13.4852H44.3822V17.1575C44.516 16.7428 44.7635 16.2879 45.1247 15.7929C45.4859 15.2845 46.0344 14.8163 46.7702 14.3882C47.506 13.9467 48.4559 13.5788 49.6198 13.2845C50.7971 12.9902 52.262 12.843 54.0145 12.843C56.0213 12.843 57.6534 13.0236 58.911 13.3848C60.1685 13.7327 61.1451 14.2544 61.8408 14.9501C62.5499 15.6324 63.0248 16.4819 63.2656 17.4986C63.5198 18.5154 63.6469 19.686 63.6469 21.0104H60.4361Z" fill="#EAEFE1"/>
<path d="M67.4998 24.8834C67.4998 22.5155 67.754 20.5555 68.2624 19.0037C68.7707 17.4518 69.5868 16.221 70.7106 15.3113C71.8343 14.4016 73.2926 13.7661 75.0853 13.4049C76.8779 13.0303 79.0586 12.843 81.6272 12.843C84.1958 12.843 86.3765 13.0303 88.1692 13.4049C89.9618 13.7661 91.4201 14.4016 92.5438 15.3113C93.6676 16.221 94.4837 17.4518 94.9921 19.0037C95.5004 20.5555 95.7546 22.5155 95.7546 24.8834C95.7546 27.2514 95.5004 29.218 94.9921 30.7832C94.4837 32.3485 93.6676 33.5926 92.5438 34.5157C91.4201 35.4388 89.9618 36.0944 88.1692 36.4823C86.3765 36.8569 84.1958 37.0442 81.6272 37.0442C79.0586 37.0442 76.8779 36.8569 75.0853 36.4823C73.2926 36.0944 71.8343 35.4388 70.7106 34.5157C69.5868 33.5926 68.7707 32.3485 68.2624 30.7832C67.754 29.218 67.4998 27.2514 67.4998 24.8834ZM71.3527 24.8834C71.3527 26.1677 71.3996 27.2848 71.4932 28.2347C71.5868 29.1845 71.7608 30.0006 72.0149 30.6829C72.2825 31.3652 72.6504 31.9204 73.1187 32.3485C73.5869 32.7766 74.2023 33.1177 74.9648 33.3719C75.7274 33.6261 76.6505 33.8 77.7341 33.8936C78.8312 33.9873 80.1288 34.0341 81.6272 34.0341C82.9115 34.0341 84.0554 34.0074 85.0587 33.9538C86.0755 33.887 86.9584 33.7465 87.7076 33.5324C88.4702 33.3184 89.119 33.0174 89.6541 32.6294C90.1893 32.2281 90.6174 31.6862 90.9384 31.0039C91.2729 30.3217 91.5137 29.4855 91.6609 28.4955C91.8214 27.4922 91.9017 26.2881 91.9017 24.8834C91.9017 23.5054 91.8214 22.3349 91.6609 21.3716C91.5137 20.395 91.2729 19.5789 90.9384 18.9234C90.6174 18.2679 90.1893 17.7528 89.6541 17.3782C89.119 16.9903 88.4702 16.7026 87.7076 16.5153C86.9584 16.3147 86.0755 16.1876 85.0587 16.134C84.0554 16.0805 82.9115 16.0538 81.6272 16.0538C80.3429 16.0538 79.1924 16.0805 78.1756 16.134C77.1723 16.1876 76.2893 16.3147 75.5267 16.5153C74.7776 16.7026 74.1354 16.9903 73.6003 17.3782C73.0651 17.7528 72.6303 18.2679 72.2959 18.9234C71.9748 19.5789 71.734 20.395 71.5735 21.3716C71.4263 22.3349 71.3527 23.5054 71.3527 24.8834Z" fill="#EAEFE1"/>
<path d="M170.887 13.4852L161.897 36.6027H156.759L149.696 17.6592L142.632 36.6027H137.495L128.505 13.4852H133L140.063 33.713L147.769 13.4852H151.622L159.248 33.713L166.392 13.4852H170.887Z" fill="#EAEFE1"/>
<path d="M186.941 37.0442C184.372 37.0442 182.191 36.8703 180.399 36.5225C178.606 36.1613 177.148 35.5459 176.024 34.6763C174.9 33.8067 174.084 32.6428 173.576 31.1846C173.067 29.7263 172.813 27.8935 172.813 25.6861C172.813 23.1576 173.067 21.0706 173.576 19.4251C174.084 17.7662 174.9 16.4484 176.024 15.4718C177.148 14.4952 178.606 13.8129 180.399 13.425C182.191 13.037 184.372 12.843 186.941 12.843C188.773 12.843 190.359 12.9768 191.697 13.2443C193.048 13.5119 194.198 13.8999 195.148 14.4083C196.111 14.9166 196.887 15.532 197.476 16.2544C198.078 16.9769 198.546 17.7394 198.881 18.5421C199.229 19.3314 199.463 20.2612 199.583 21.3315C199.717 22.4017 199.784 23.5322 199.784 24.7229L199.463 26.0072H176.666C176.666 27.7731 176.84 29.2246 177.188 30.3618C177.536 31.4856 178.111 32.3083 178.914 32.8301C179.716 33.3518 180.773 33.6863 182.084 33.8334C183.395 33.9672 185.014 34.0341 186.941 34.0341C188.707 34.0341 190.165 33.9873 191.315 33.8936C192.479 33.7866 193.402 33.5926 194.085 33.3117C194.767 33.0307 195.242 32.6428 195.509 32.1478C195.79 31.6394 195.931 30.9839 195.931 30.1812H199.784C199.784 31.4254 199.563 32.4889 199.121 33.3719C198.693 34.2415 197.978 34.9505 196.974 35.499C195.971 36.0342 194.646 36.4221 193.001 36.6629C191.369 36.9171 189.349 37.0442 186.941 37.0442ZM186.941 16.0538C185.656 16.0538 184.506 16.0805 183.489 16.134C182.486 16.1876 181.603 16.308 180.84 16.4953C180.091 16.6692 179.449 16.93 178.914 17.2779C178.379 17.6123 177.944 18.0137 177.609 18.4819C177.288 18.9368 177.047 19.5856 176.887 20.4285C176.74 21.2579 176.666 22.2613 176.666 23.4386H195.931C195.931 21.8733 195.764 20.6492 195.429 19.7662C195.095 18.8699 194.566 18.1341 193.844 17.5588C193.121 16.9836 192.192 16.5889 191.054 16.3749C189.917 16.1608 188.546 16.0538 186.941 16.0538Z" fill="#EAEFE1"/>
<path d="M227.938 33.4321C227.898 33.5926 227.597 33.994 227.035 34.6361C226.634 35.1178 226.099 35.5459 225.43 35.9204C224.761 36.2817 223.865 36.5626 222.741 36.7633C221.63 36.9773 220.165 37.0843 218.346 37.0843C215.925 37.0843 213.858 36.9573 212.145 36.7031C210.433 36.4623 209.035 36.0877 207.951 35.5793C206.867 35.0575 206.071 34.3953 205.563 33.5926C205.068 32.7899 204.821 31.8334 204.821 30.723C204.821 29.5591 204.954 28.5758 205.222 27.7731C205.503 26.957 205.904 26.2747 206.426 25.7262C206.961 25.1777 207.603 24.7496 208.352 24.4419C209.102 24.1342 209.951 23.9001 210.901 23.7396C211.864 23.579 212.914 23.4787 214.052 23.4386C215.189 23.3984 216.399 23.3784 217.684 23.3784C219.517 23.3784 221.048 23.4586 222.279 23.6192C223.51 23.7663 224.513 23.9603 225.289 24.2011C226.079 24.4285 226.674 24.676 227.075 24.9436C227.477 25.2112 227.764 25.4587 227.938 25.6861C227.938 24.1877 227.871 22.9101 227.738 21.8532C227.617 20.7964 227.41 19.9134 227.115 19.2043C226.834 18.4953 226.467 17.9334 226.012 17.5187C225.557 17.0906 224.995 16.7695 224.326 16.5555C223.671 16.3414 222.901 16.2076 222.018 16.1541C221.135 16.0872 220.125 16.0538 218.988 16.0538C217.222 16.0538 215.757 16.1006 214.593 16.1942C213.429 16.2745 212.506 16.4417 211.824 16.6959C211.142 16.9501 210.66 17.3046 210.379 17.7595C210.098 18.201 209.958 18.7829 209.958 19.5054H206.105C206.105 18.2879 206.319 17.2578 206.747 16.415C207.189 15.5722 207.911 14.8899 208.914 14.3681C209.931 13.833 211.262 13.445 212.908 13.2042C214.553 12.9634 216.58 12.843 218.988 12.843C221.343 12.843 223.336 13.037 224.968 13.425C226.6 13.8129 227.918 14.4952 228.921 15.4718C229.938 16.4484 230.667 17.7662 231.109 19.4251C231.564 21.0706 231.791 23.1576 231.791 25.6861V36.6027H227.938V33.4321ZM218.988 34.0341C220.687 34.0341 222.105 33.9538 223.242 33.7933C224.393 33.6328 225.316 33.392 226.012 33.0709C226.707 32.7498 227.202 32.3485 227.497 31.8668C227.791 31.3852 227.938 30.8233 227.938 30.1812C227.938 29.539 227.764 28.9972 227.416 28.5557C227.082 28.1009 226.513 27.733 225.711 27.452C224.921 27.1711 223.871 26.9704 222.56 26.85C221.249 26.7162 219.63 26.6493 217.704 26.6493C215.777 26.6493 214.219 26.6828 213.028 26.7497C211.851 26.8166 210.941 26.9704 210.299 27.2112C209.657 27.452 209.222 27.8065 208.995 28.2748C208.781 28.743 208.674 29.3785 208.674 30.1812C208.674 30.9839 208.787 31.6394 209.015 32.1478C209.255 32.6428 209.737 33.0307 210.46 33.3117C211.182 33.5926 212.219 33.7866 213.57 33.8936C214.935 33.9873 216.741 34.0341 218.988 34.0341Z" fill="#EAEFE1"/>
<path d="M238.233 5.7793H242.086V36.6027H238.233V5.7793Z" fill="#EAEFE1"/>
<path d="M270.983 26.3283C270.983 28.2949 270.822 29.9404 270.501 31.2648C270.18 32.5759 269.638 33.6261 268.876 34.4154C268.126 35.2047 267.136 35.7666 265.906 36.1011C264.675 36.4355 263.156 36.6027 261.35 36.6027C259.598 36.6027 258.126 36.469 256.935 36.2014C255.745 35.9338 254.782 35.479 254.046 34.8368C253.31 34.1947 252.782 33.3384 252.46 32.2682C252.139 31.1979 251.979 29.8601 251.979 28.2547V16.6558H247.223V13.4852H251.979V7.16394H255.832V13.4852H270.34V16.6558H255.832V28.2547C255.832 29.539 255.925 30.529 256.113 31.2247C256.313 31.9204 256.628 32.4287 257.056 32.7498C257.484 33.0709 258.046 33.2582 258.742 33.3117C259.451 33.3652 260.313 33.392 261.33 33.392C262.133 33.392 262.849 33.3786 263.477 33.3518C264.12 33.3251 264.675 33.2448 265.143 33.111C265.625 32.9639 266.033 32.7498 266.367 32.4689C266.702 32.1745 266.969 31.7665 267.17 31.2448C267.384 30.723 267.538 30.0675 267.631 29.2782C267.725 28.4755 267.772 27.4922 267.772 26.3283H270.983Z" fill="#EAEFE1"/>
<path d="M299.237 36.6027V23.559C299.237 22.1676 299.13 20.997 298.916 20.0472C298.702 19.0839 298.274 18.308 297.632 17.7194C296.99 17.1307 296.08 16.7093 294.903 16.4551C293.726 16.1876 292.174 16.0538 290.247 16.0538C288.16 16.0538 286.448 16.2076 285.11 16.5153C283.786 16.8096 282.742 17.2311 281.98 17.7796C281.217 18.3147 280.689 18.9635 280.394 19.7261C280.113 20.4887 279.973 21.3382 279.973 22.2747V36.6027H276.12V5.7793H279.973V17.1374C280.24 16.5086 280.622 15.9668 281.117 15.512C281.612 15.0571 282.18 14.6691 282.822 14.3481C283.478 14.027 284.18 13.7728 284.929 13.5855C285.679 13.3848 286.434 13.231 287.197 13.1239C287.973 13.0169 288.729 12.9433 289.465 12.9032C290.214 12.8631 290.903 12.843 291.532 12.843C293.244 12.843 294.716 12.95 295.946 13.1641C297.191 13.3648 298.241 13.6725 299.097 14.0872C299.967 14.4885 300.662 14.9902 301.184 15.5922C301.706 16.1942 302.107 16.8966 302.388 17.6993C302.682 18.4886 302.876 19.3783 302.97 20.3683C303.064 21.3449 303.11 22.4084 303.11 23.559L303.09 36.6027H299.237Z" fill="#EAEFE1"/>
<path d="M2 5.7793H25.1577C27.0708 5.7793 28.6829 5.86626 29.9939 6.04017C31.3184 6.20071 32.4087 6.44821 33.2649 6.78266C34.1211 7.11712 34.7767 7.53184 35.2315 8.02684C35.6998 8.52183 36.0409 9.10379 36.2549 9.7727C36.469 10.4416 36.5894 11.1908 36.6162 12.0202C36.6563 12.8497 36.6764 13.7661 36.6764 14.7695C36.6764 15.813 36.6496 16.7762 36.5961 17.6592C36.556 18.5421 36.4021 19.3448 36.1345 20.0672C35.8804 20.7763 35.4656 21.4051 34.8904 21.9536C34.3285 22.4887 33.5191 22.9369 32.4622 23.2981C31.4187 23.6593 30.0876 23.9336 28.4688 24.1208C26.8634 24.3081 24.8835 24.4018 22.5289 24.4018H5.85293C9.46655 32.8668 11.5767 34.5966 9.3674 35.9111C8.38235 36.4972 7.19348 36.6027 6.04726 36.6027H2V5.7793ZM5.85293 21.191H22.5289C24.2413 21.191 25.6795 21.1643 26.8434 21.1107C28.0207 21.0439 28.9906 20.9301 29.7531 20.7696C30.5157 20.6091 31.1043 20.3816 31.5191 20.0873C31.9338 19.793 32.2348 19.405 32.4221 18.9234C32.6228 18.4418 32.7365 17.8665 32.7632 17.1976C32.8034 16.5153 32.8234 15.7059 32.8234 14.7695C32.8234 13.8999 32.8034 13.1507 32.7632 12.5219C32.7365 11.8931 32.6228 11.3647 32.4221 10.9366C32.2348 10.5085 31.9338 10.1674 31.5191 9.91317C31.1043 9.65898 30.5157 9.465 29.7531 9.33122C28.9906 9.18406 28.0207 9.09041 26.8434 9.05027C25.6795 9.01014 24.2413 8.99007 22.5289 8.99007H5.85293V21.191Z" stroke="#EAEFE1" stroke-width="4" mask="url(#path-1-outside-1_222_10)"/>
<path d="M60.4361 21.0104C60.4361 20.0472 60.3625 19.2512 60.2154 18.6224C60.0816 17.9802 59.7538 17.4719 59.2321 17.0973C58.7103 16.7093 57.9344 16.4417 56.9042 16.2946C55.8875 16.134 54.4962 16.0538 52.7302 16.0538C51.0044 16.0538 49.5997 16.2076 48.5161 16.5153C47.4325 16.8096 46.5829 17.2311 45.9675 17.7796C45.3521 18.3281 44.9307 18.9836 44.7033 19.7462C44.4892 20.5087 44.3822 21.3582 44.3822 22.2947V36.6027H40.5293V13.4852H44.3822V17.1575C44.516 16.7428 44.7635 16.2879 45.1247 15.7929C45.4859 15.2845 46.0344 14.8163 46.7702 14.3882C47.506 13.9467 48.4559 13.5788 49.6198 13.2845C50.7971 12.9902 52.262 12.843 54.0145 12.843C56.0213 12.843 57.6534 13.0236 58.911 13.3848C60.1685 13.7327 61.1451 14.2544 61.8408 14.9501C62.5499 15.6324 63.0248 16.4819 63.2656 17.4986C63.5198 18.5154 63.6469 19.686 63.6469 21.0104H60.4361Z" stroke="#EAEFE1" stroke-width="4" mask="url(#path-1-outside-1_222_10)"/>
<path d="M67.4998 24.8834C67.4998 22.5155 67.754 20.5555 68.2624 19.0037C68.7707 17.4518 69.5868 16.221 70.7106 15.3113C71.8343 14.4016 73.2926 13.7661 75.0853 13.4049C76.8779 13.0303 79.0586 12.843 81.6272 12.843C84.1958 12.843 86.3765 13.0303 88.1692 13.4049C89.9618 13.7661 91.4201 14.4016 92.5438 15.3113C93.6676 16.221 94.4837 17.4518 94.9921 19.0037C95.5004 20.5555 95.7546 22.5155 95.7546 24.8834C95.7546 27.2514 95.5004 29.218 94.9921 30.7832C94.4837 32.3485 93.6676 33.5926 92.5438 34.5157C91.4201 35.4388 89.9618 36.0944 88.1692 36.4823C86.3765 36.8569 84.1958 37.0442 81.6272 37.0442C79.0586 37.0442 76.8779 36.8569 75.0853 36.4823C73.2926 36.0944 71.8343 35.4388 70.7106 34.5157C69.5868 33.5926 68.7707 32.3485 68.2624 30.7832C67.754 29.218 67.4998 27.2514 67.4998 24.8834ZM71.3527 24.8834C71.3527 26.1677 71.3996 27.2848 71.4932 28.2347C71.5868 29.1845 71.7608 30.0006 72.0149 30.6829C72.2825 31.3652 72.6504 31.9204 73.1187 32.3485C73.5869 32.7766 74.2023 33.1177 74.9648 33.3719C75.7274 33.6261 76.6505 33.8 77.7341 33.8936C78.8312 33.9873 80.1288 34.0341 81.6272 34.0341C82.9115 34.0341 84.0554 34.0074 85.0587 33.9538C86.0755 33.887 86.9584 33.7465 87.7076 33.5324C88.4702 33.3184 89.119 33.0174 89.6541 32.6294C90.1893 32.2281 90.6174 31.6862 90.9384 31.0039C91.2729 30.3217 91.5137 29.4855 91.6609 28.4955C91.8214 27.4922 91.9017 26.2881 91.9017 24.8834C91.9017 23.5054 91.8214 22.3349 91.6609 21.3716C91.5137 20.395 91.2729 19.5789 90.9384 18.9234C90.6174 18.2679 90.1893 17.7528 89.6541 17.3782C89.119 16.9903 88.4702 16.7026 87.7076 16.5153C86.9584 16.3147 86.0755 16.1876 85.0587 16.134C84.0554 16.0805 82.9115 16.0538 81.6272 16.0538C80.3429 16.0538 79.1924 16.0805 78.1756 16.134C77.1723 16.1876 76.2893 16.3147 75.5267 16.5153C74.7776 16.7026 74.1354 16.9903 73.6003 17.3782C73.0651 17.7528 72.6303 18.2679 72.2959 18.9234C71.9748 19.5789 71.734 20.395 71.5735 21.3716C71.4263 22.3349 71.3527 23.5054 71.3527 24.8834Z" stroke="#EAEFE1" stroke-width="4" mask="url(#path-1-outside-1_222_10)"/>
<path d="M170.887 13.4852L161.897 36.6027H156.759L149.696 17.6592L142.632 36.6027H137.495L128.505 13.4852H133L140.063 33.713L147.769 13.4852H151.622L159.248 33.713L166.392 13.4852H170.887Z" stroke="#EAEFE1" stroke-width="4" mask="url(#path-1-outside-1_222_10)"/>
<path d="M186.941 37.0442C184.372 37.0442 182.191 36.8703 180.399 36.5225C178.606 36.1613 177.148 35.5459 176.024 34.6763C174.9 33.8067 174.084 32.6428 173.576 31.1846C173.067 29.7263 172.813 27.8935 172.813 25.6861C172.813 23.1576 173.067 21.0706 173.576 19.4251C174.084 17.7662 174.9 16.4484 176.024 15.4718C177.148 14.4952 178.606 13.8129 180.399 13.425C182.191 13.037 184.372 12.843 186.941 12.843C188.773 12.843 190.359 12.9768 191.697 13.2443C193.048 13.5119 194.198 13.8999 195.148 14.4083C196.111 14.9166 196.887 15.532 197.476 16.2544C198.078 16.9769 198.546 17.7394 198.881 18.5421C199.229 19.3314 199.463 20.2612 199.583 21.3315C199.717 22.4017 199.784 23.5322 199.784 24.7229L199.463 26.0072H176.666C176.666 27.7731 176.84 29.2246 177.188 30.3618C177.536 31.4856 178.111 32.3083 178.914 32.8301C179.716 33.3518 180.773 33.6863 182.084 33.8334C183.395 33.9672 185.014 34.0341 186.941 34.0341C188.707 34.0341 190.165 33.9873 191.315 33.8936C192.479 33.7866 193.402 33.5926 194.085 33.3117C194.767 33.0307 195.242 32.6428 195.509 32.1478C195.79 31.6394 195.931 30.9839 195.931 30.1812H199.784C199.784 31.4254 199.563 32.4889 199.121 33.3719C198.693 34.2415 197.978 34.9505 196.974 35.499C195.971 36.0342 194.646 36.4221 193.001 36.6629C191.369 36.9171 189.349 37.0442 186.941 37.0442ZM186.941 16.0538C185.656 16.0538 184.506 16.0805 183.489 16.134C182.486 16.1876 181.603 16.308 180.84 16.4953C180.091 16.6692 179.449 16.93 178.914 17.2779C178.379 17.6123 177.944 18.0137 177.609 18.4819C177.288 18.9368 177.047 19.5856 176.887 20.4285C176.74 21.2579 176.666 22.2613 176.666 23.4386H195.931C195.931 21.8733 195.764 20.6492 195.429 19.7662C195.095 18.8699 194.566 18.1341 193.844 17.5588C193.121 16.9836 192.192 16.5889 191.054 16.3749C189.917 16.1608 188.546 16.0538 186.941 16.0538Z" stroke="#EAEFE1" stroke-width="4" mask="url(#path-1-outside-1_222_10)"/>
<path d="M227.938 33.4321C227.898 33.5926 227.597 33.994 227.035 34.6361C226.634 35.1178 226.099 35.5459 225.43 35.9204C224.761 36.2817 223.865 36.5626 222.741 36.7633C221.63 36.9773 220.165 37.0843 218.346 37.0843C215.925 37.0843 213.858 36.9573 212.145 36.7031C210.433 36.4623 209.035 36.0877 207.951 35.5793C206.867 35.0575 206.071 34.3953 205.563 33.5926C205.068 32.7899 204.821 31.8334 204.821 30.723C204.821 29.5591 204.954 28.5758 205.222 27.7731C205.503 26.957 205.904 26.2747 206.426 25.7262C206.961 25.1777 207.603 24.7496 208.352 24.4419C209.102 24.1342 209.951 23.9001 210.901 23.7396C211.864 23.579 212.914 23.4787 214.052 23.4386C215.189 23.3984 216.399 23.3784 217.684 23.3784C219.517 23.3784 221.048 23.4586 222.279 23.6192C223.51 23.7663 224.513 23.9603 225.289 24.2011C226.079 24.4285 226.674 24.676 227.075 24.9436C227.477 25.2112 227.764 25.4587 227.938 25.6861C227.938 24.1877 227.871 22.9101 227.738 21.8532C227.617 20.7964 227.41 19.9134 227.115 19.2043C226.834 18.4953 226.467 17.9334 226.012 17.5187C225.557 17.0906 224.995 16.7695 224.326 16.5555C223.671 16.3414 222.901 16.2076 222.018 16.1541C221.135 16.0872 220.125 16.0538 218.988 16.0538C217.222 16.0538 215.757 16.1006 214.593 16.1942C213.429 16.2745 212.506 16.4417 211.824 16.6959C211.142 16.9501 210.66 17.3046 210.379 17.7595C210.098 18.201 209.958 18.7829 209.958 19.5054H206.105C206.105 18.2879 206.319 17.2578 206.747 16.415C207.189 15.5722 207.911 14.8899 208.914 14.3681C209.931 13.833 211.262 13.445 212.908 13.2042C214.553 12.9634 216.58 12.843 218.988 12.843C221.343 12.843 223.336 13.037 224.968 13.425C226.6 13.8129 227.918 14.4952 228.921 15.4718C229.938 16.4484 230.667 17.7662 231.109 19.4251C231.564 21.0706 231.791 23.1576 231.791 25.6861V36.6027H227.938V33.4321ZM218.988 34.0341C220.687 34.0341 222.105 33.9538 223.242 33.7933C224.393 33.6328 225.316 33.392 226.012 33.0709C226.707 32.7498 227.202 32.3485 227.497 31.8668C227.791 31.3852 227.938 30.8233 227.938 30.1812C227.938 29.539 227.764 28.9972 227.416 28.5557C227.082 28.1009 226.513 27.733 225.711 27.452C224.921 27.1711 223.871 26.9704 222.56 26.85C221.249 26.7162 219.63 26.6493 217.704 26.6493C215.777 26.6493 214.219 26.6828 213.028 26.7497C211.851 26.8166 210.941 26.9704 210.299 27.2112C209.657 27.452 209.222 27.8065 208.995 28.2748C208.781 28.743 208.674 29.3785 208.674 30.1812C208.674 30.9839 208.787 31.6394 209.015 32.1478C209.255 32.6428 209.737 33.0307 210.46 33.3117C211.182 33.5926 212.219 33.7866 213.57 33.8936C214.935 33.9873 216.741 34.0341 218.988 34.0341Z" stroke="#EAEFE1" stroke-width="4" mask="url(#path-1-outside-1_222_10)"/>
<path d="M238.233 5.7793H242.086V36.6027H238.233V5.7793Z" stroke="#EAEFE1" stroke-width="4" mask="url(#path-1-outside-1_222_10)"/>
<path d="M270.983 26.3283C270.983 28.2949 270.822 29.9404 270.501 31.2648C270.18 32.5759 269.638 33.6261 268.876 34.4154C268.126 35.2047 267.136 35.7666 265.906 36.1011C264.675 36.4355 263.156 36.6027 261.35 36.6027C259.598 36.6027 258.126 36.469 256.935 36.2014C255.745 35.9338 254.782 35.479 254.046 34.8368C253.31 34.1947 252.782 33.3384 252.46 32.2682C252.139 31.1979 251.979 29.8601 251.979 28.2547V16.6558H247.223V13.4852H251.979V7.16394H255.832V13.4852H270.34V16.6558H255.832V28.2547C255.832 29.539 255.925 30.529 256.113 31.2247C256.313 31.9204 256.628 32.4287 257.056 32.7498C257.484 33.0709 258.046 33.2582 258.742 33.3117C259.451 33.3652 260.313 33.392 261.33 33.392C262.133 33.392 262.849 33.3786 263.477 33.3518C264.12 33.3251 264.675 33.2448 265.143 33.111C265.625 32.9639 266.033 32.7498 266.367 32.4689C266.702 32.1745 266.969 31.7665 267.17 31.2448C267.384 30.723 267.538 30.0675 267.631 29.2782C267.725 28.4755 267.772 27.4922 267.772 26.3283H270.983Z" stroke="#EAEFE1" stroke-width="4" mask="url(#path-1-outside-1_222_10)"/>
<path d="M299.237 36.6027V23.559C299.237 22.1676 299.13 20.997 298.916 20.0472C298.702 19.0839 298.274 18.308 297.632 17.7194C296.99 17.1307 296.08 16.7093 294.903 16.4551C293.726 16.1876 292.174 16.0538 290.247 16.0538C288.16 16.0538 286.448 16.2076 285.11 16.5153C283.786 16.8096 282.742 17.2311 281.98 17.7796C281.217 18.3147 280.689 18.9635 280.394 19.7261C280.113 20.4887 279.973 21.3382 279.973 22.2747V36.6027H276.12V5.7793H279.973V17.1374C280.24 16.5086 280.622 15.9668 281.117 15.512C281.612 15.0571 282.18 14.6691 282.822 14.3481C283.478 14.027 284.18 13.7728 284.929 13.5855C285.679 13.3848 286.434 13.231 287.197 13.1239C287.973 13.0169 288.729 12.9433 289.465 12.9032C290.214 12.8631 290.903 12.843 291.532 12.843C293.244 12.843 294.716 12.95 295.946 13.1641C297.191 13.3648 298.241 13.6725 299.097 14.0872C299.967 14.4885 300.662 14.9902 301.184 15.5922C301.706 16.1942 302.107 16.8966 302.388 17.6993C302.682 18.4886 302.876 19.3783 302.97 20.3683C303.064 21.3449 303.11 22.4084 303.11 23.559L303.09 36.6027H299.237Z" stroke="#EAEFE1" stroke-width="4" mask="url(#path-1-outside-1_222_10)"/>
<path d="M115.549 3.48789C115.549 4.41293 115.182 5.30009 114.527 5.9542C113.873 6.6083 112.986 6.97578 112.061 6.97578C111.136 6.97578 110.249 6.6083 109.595 5.9542C108.941 5.30009 108.573 4.41293 108.573 3.48789C108.573 2.56284 108.941 1.67568 109.595 1.02158C110.249 0.367473 111.136 0 112.061 0C112.986 0 113.873 0.367473 114.527 1.02158C115.182 1.67568 115.549 2.56284 115.549 3.48789ZM108.434 8.72437C108.597 8.54035 108.798 8.393 109.022 8.29201C109.247 8.19102 109.49 8.13867 109.736 8.13841H113.096C114.821 8.13841 116.165 9.63355 115.986 11.3473L114.986 20.8413C114.953 21.1542 114.884 21.4623 114.782 21.7598L114.042 23.8665L114.538 24.4292C114.643 24.5526 114.732 24.6894 114.803 24.8361L119.453 34.7184C119.558 34.9265 119.619 35.1534 119.635 35.3857C119.65 35.618 119.619 35.851 119.543 36.071C119.467 36.2911 119.347 36.4936 119.192 36.6668C119.036 36.84 118.847 36.9802 118.637 37.0793C118.426 37.1783 118.198 37.2342 117.965 37.2436C117.732 37.2529 117.5 37.2157 117.282 37.1339C117.064 37.0521 116.865 36.9275 116.696 36.7675C116.527 36.6074 116.391 36.4151 116.298 36.202L111.75 26.5428L107.843 22.076C107.543 21.7344 107.387 21.2888 107.411 20.8343L107.732 14.7584L106.72 15.8955L105.641 22.3736C105.565 22.83 105.311 23.2375 104.935 23.5066C104.559 23.7756 104.091 23.8842 103.634 23.8083C103.178 23.7325 102.771 23.4784 102.502 23.1021C102.232 22.7258 102.124 22.258 102.2 21.8016L103.362 14.8258C103.417 14.5015 103.562 14.1993 103.781 13.9539L108.431 8.72205L108.434 8.72437Z" fill="#6EA8FF"/>
<path d="M107.992 27.3103V24.0131L110.792 27.2103L111.398 28.4288C111.335 28.6218 111.241 28.8033 111.119 28.9659L105.306 36.523C105.024 36.8899 104.608 37.1299 104.15 37.1901C103.691 37.2502 103.227 37.1257 102.86 36.8439C102.493 36.5621 102.253 36.146 102.193 35.6873C102.133 35.2285 102.257 34.7646 102.539 34.3977L107.992 27.3103ZM117.805 17.5094L116.656 16.3607L117.133 12.0752L117.147 11.9194L119.76 14.533H123.108C123.571 14.533 124.015 14.7168 124.342 15.0438C124.669 15.3709 124.852 15.8144 124.852 16.277C124.852 16.7395 124.669 17.1831 124.342 17.5101C124.015 17.8372 123.571 18.0209 123.108 18.0209H119.037C118.808 18.021 118.581 17.9759 118.369 17.8881C118.157 17.8003 117.964 17.6716 117.802 17.5094H117.805Z" fill="#0085FF"/>
<path d="M308.448 29.6796H307.666V28.897H308.448V29.6796Z" fill="#6EA8FF"/>
<path d="M308.46 37.8871H307.678V31.6261H309.051L314.791 37.1045V31.6261H315.573V37.8871H314.53L308.46 32.2783V37.8871Z" fill="#6EA8FF"/>
<path d="M323.217 33.5827C323.217 33.2566 323.182 32.9984 323.111 32.8082C323.041 32.618 322.924 32.474 322.761 32.3761C322.598 32.2783 322.383 32.2158 322.117 32.1886C321.853 32.1615 321.526 32.1479 321.134 32.1479H319.304C318.956 32.1479 318.663 32.1588 318.424 32.1805C318.187 32.1995 317.992 32.2403 317.837 32.3028C317.682 32.3653 317.562 32.455 317.478 32.5718C317.394 32.6887 317.333 32.8435 317.295 33.0365C317.257 33.2294 317.235 33.4672 317.23 33.7498C317.224 34.0297 317.221 34.3653 317.221 34.7566C317.221 35.1479 317.224 35.4849 317.23 35.7675C317.238 36.0474 317.261 36.2838 317.299 36.4768C317.337 36.6697 317.397 36.8246 317.478 36.9415C317.562 37.0583 317.682 37.148 317.837 37.2105C317.992 37.273 318.187 37.3151 318.424 37.3369C318.663 37.3559 318.956 37.3654 319.304 37.3654H321.134C321.439 37.3654 321.701 37.3572 321.921 37.3409C322.141 37.3246 322.329 37.2947 322.484 37.2513C322.639 37.2078 322.764 37.148 322.859 37.0719C322.954 36.9958 323.027 36.9007 323.079 36.7866C323.133 36.6697 323.17 36.5311 323.189 36.3708C323.208 36.2078 323.217 36.0175 323.217 35.8001H324C324 36.061 323.984 36.2974 323.951 36.5094C323.919 36.7186 323.86 36.9061 323.776 37.0719C323.694 37.235 323.584 37.3763 323.446 37.4958C323.307 37.6154 323.132 37.7146 322.92 37.7934C322.708 37.8695 322.455 37.9252 322.162 37.9605C321.868 37.9986 321.526 38.0176 321.134 38.0176H319.304C318.826 38.0176 318.422 37.9877 318.094 37.9279C317.768 37.8708 317.499 37.7839 317.287 37.667C317.075 37.5475 316.91 37.398 316.793 37.2186C316.679 37.0393 316.595 36.8287 316.541 36.5868C316.489 36.345 316.459 36.0719 316.451 35.7675C316.443 35.4632 316.439 35.1262 316.439 34.7566C316.439 34.3871 316.443 34.0501 316.451 33.7457C316.459 33.4414 316.489 33.1683 316.541 32.9264C316.595 32.6846 316.679 32.474 316.793 32.2946C316.91 32.1153 317.075 31.9672 317.287 31.8503C317.499 31.7308 317.768 31.6424 318.094 31.5854C318.422 31.5256 318.826 31.4957 319.304 31.4957H321.134C321.526 31.4957 321.868 31.5147 322.162 31.5528C322.455 31.5881 322.708 31.6438 322.92 31.7199C323.132 31.7933 323.307 31.887 323.446 32.0011C323.584 32.1153 323.694 32.2498 323.776 32.4047C323.86 32.5596 323.919 32.7349 323.951 32.9305C323.984 33.1262 324 33.3436 324 33.5827H323.217Z" fill="#6EA8FF"/>
<path d="M323.189 36.3708L322.99 36.3472C322.973 36.4916 322.941 36.6087 322.897 36.7022L322.897 36.7041C322.858 36.7904 322.804 36.8599 322.734 36.9157C322.665 36.9706 322.567 37.0203 322.43 37.0587C322.291 37.0975 322.118 37.1258 321.906 37.1415C321.693 37.1573 321.436 37.1654 321.134 37.1654H319.304C318.96 37.1654 318.673 37.156 318.441 37.1376C318.217 37.1169 318.042 37.0778 317.912 37.025C317.787 36.9746 317.7 36.9068 317.641 36.8257C317.581 36.7386 317.529 36.6127 317.495 36.4381C317.46 36.2597 317.437 36.0353 317.429 35.7627C317.424 35.4819 317.421 35.1466 317.421 34.7566C317.421 34.3662 317.424 34.0319 317.429 33.7537L317.429 33.7537C317.435 33.4782 317.456 33.2529 317.491 33.0752C317.525 32.9008 317.578 32.7754 317.64 32.6888C317.699 32.6072 317.786 32.5389 317.912 32.4882C318.042 32.4358 318.216 32.3979 318.44 32.3799L318.442 32.3797C318.673 32.3587 318.96 32.3479 319.304 32.3479H321.134C321.522 32.3479 321.842 32.3614 322.096 32.3876L322.097 32.3876C322.345 32.4129 322.528 32.4698 322.658 32.5476C322.779 32.6205 322.868 32.7271 322.924 32.8779C322.983 33.0364 323.017 33.2677 323.017 33.5827V33.7827H323.217H324H324.2V33.5827C324.2 33.3347 324.183 33.1061 324.148 32.8976C324.113 32.6832 324.048 32.4867 323.952 32.3102M323.189 36.3708L322.99 36.3476C323.008 36.1943 323.017 36.0121 323.017 35.8001V35.6001H323.217H324H324.2V35.8001C324.2 36.0691 324.183 36.3159 324.149 36.5398L324.149 36.5402C324.113 36.7674 324.049 36.9755 323.954 37.1625C323.861 37.3488 323.735 37.5108 323.576 37.6473C323.416 37.7855 323.219 37.8956 322.99 37.9809L322.987 37.9816L322.987 37.9816C322.758 38.064 322.49 38.1224 322.186 38.159M323.189 36.3708C323.208 36.2078 323.217 36.0175 323.217 35.8001L317.478 36.9415C317.562 37.0583 317.682 37.148 317.837 37.2105C317.992 37.273 318.187 37.3151 318.424 37.3369C318.663 37.3559 318.956 37.3654 319.304 37.3654H321.134C321.439 37.3654 321.701 37.3572 321.921 37.3409C322.141 37.3246 322.329 37.2947 322.484 37.2513C322.639 37.2078 322.764 37.148 322.859 37.0719C322.954 36.9958 323.027 36.9007 323.079 36.7866C323.133 36.6697 323.17 36.5311 323.189 36.3708ZM322.186 38.159C321.882 38.1983 321.531 38.2176 321.134 38.2176H319.304C318.819 38.2176 318.403 38.1873 318.058 38.1248C317.718 38.0652 317.427 37.9727 317.19 37.8422L317.188 37.8412C316.952 37.708 316.762 37.5376 316.626 37.3278L316.625 37.326L316.625 37.326C316.496 37.1242 316.404 36.8914 316.345 36.6307L316.345 36.6286L316.345 36.6286C316.29 36.3724 316.259 36.0868 316.251 35.7729C316.243 35.4664 316.239 35.1276 316.239 34.7566C316.239 34.3856 316.243 34.0469 316.251 33.7404C316.259 33.4265 316.29 33.1409 316.345 32.8847L316.345 32.8826C316.404 32.6219 316.496 32.389 316.625 32.1872L316.626 32.1854C316.763 31.9754 316.953 31.8062 317.189 31.6756C317.426 31.542 317.718 31.4481 318.059 31.3885C318.403 31.3259 318.819 31.2957 319.304 31.2957H321.134C321.531 31.2957 321.882 31.3149 322.186 31.3543C322.49 31.3908 322.757 31.4491 322.986 31.5313C323.215 31.6105 323.412 31.7145 323.573 31.8468C323.731 31.977 323.858 32.1318 323.952 32.3102M322.186 38.159C322.187 38.1589 322.187 38.1589 322.187 38.1589L322.162 37.9605L322.186 38.1591C322.186 38.159 322.186 38.159 322.186 38.159ZM323.952 32.3102C323.952 32.3107 323.953 32.3111 323.953 32.3115L323.776 32.4047L323.952 32.3091C323.952 32.3095 323.952 32.3099 323.952 32.3102ZM308.448 29.8796H308.648V29.6796V28.897V28.697H308.448H307.666H307.466V28.897V29.6796V29.8796H307.666H308.448ZM308.46 38.0871H308.66V37.8871V32.7355L314.394 38.034L314.452 38.0871H314.53H315.573H315.773V37.8871V31.6261V31.4261H315.573H314.791H314.591V31.6261V36.6371L309.19 31.4815L309.132 31.4261H309.051H307.678H307.478V31.6261V37.8871V38.0871H307.678H308.46ZM324 35.8001C324 35.8685 323.999 35.9352 323.997 36.0001H324V35.8001Z" stroke="#6EA8FF" stroke-width="0.4"/>
</svg>
